<?xml version="1.0" encoding="UTF-8"?>
<svg id="Capa_2" xmlns="http://www.w3.org/2000/svg" viewBox="0 0 498.81 148.65">
  <defs>
    <style>
      .cls-1 {
        fill: #fff;
      }

      .cls-2 {
        fill: #868686;
      }

      .cls-3 {
        fill: #f6b82c;
      }

      .cls-4 {
        fill: #74a837;
      }
    </style>
  </defs>
  <g id="Capa_1-2" data-name="Capa_1">
    <g>
      <path class="cls-2" d="M55.62,89.63c-.02-.08-.05-.16-.07-.25,4.42,0,8.85,0,13.27,0,0,.07,0,.13,0,.2-4.4.02-8.8.03-13.19.05Z"/>
      <path class="cls-4" d="M0,75.21c.22-21.12,6.57-38.54,19.15-52.97C30.39,9.36,44.15,1.87,60.24.33c20.41-1.96,38.29,4.83,53.02,20.82,13.51,14.66,20.07,32.92,19.92,53.8-.16,21.23-7.46,39.38-21.41,53.92-11.58,12.08-25.48,18.72-41.29,19.66-19,1.13-35.64-5.61-49.51-20.28C7.14,113.61.29,95.53,0,75.21ZM20.07,37.71c.44-.27.89-.52,1.31-.82,10.96-7.85,23.05-11.39,35.97-11.5,4.07-.03,8.14.54,12.17,1.41,5.6,1.21,11.03,2.95,16.09,5.92,10.13,5.96,17.17,14.89,20.71,27.13.41,1.4.77,2.82,1.28,4.69.67-3.05.83-5.72,1.03-8.35.35-4.54.07-9.1-.57-13.58-.78-5.45-2.11-10.76-4.08-15.85-.45-1.17-1.1-2.07-1.99-2.85-9.28-8.12-19.9-12.34-31.57-13.43-5-.47-9.99-.05-14.87,1.06-10.28,2.34-19.39,7.42-27.19,15.32-3.17,3.21-6.11,6.65-8.39,10.74-.12.03-.22.08-.15.25.09-.05.17-.09.26-.14ZM37.7,94.58c-.05,2.9.31,3.52,2.87,4.09,2.44.55,3.85,1.93,4.29,4.79.47,3.07,1.68,3.76,4.44,3.05,1.71-.44,2.76.04,3.71,1.68.4.69.79,1.37,1.19,2.06,1.02,1.73,1.76,2.21,3.3,1.27,2.86-1.74,5.19-1.58,7.45,1.22,1.03,1.28,2.57,1.22,3.58-.05,2.16-2.71,4.43-3.03,7.18-1.19,1.21.81,2.39.31,3.22-1.02.52-.84.96-1.75,1.48-2.6.82-1.33,1.92-1.78,3.36-1.39,3.04.82,4.4-.02,4.9-3.42.39-2.64,1.59-3.9,3.88-4.36,2.96-.6,3.59-1.79,2.94-5.05-.37-1.82.11-3.23,1.48-4.26.53-.4,1.1-.75,1.64-1.14,1.94-1.39,2.16-2.18,1.28-4.59-.31-.85-.69-1.69-.88-2.57-.43-1.91.8-3.08,1.78-4.25,1.55-1.84,1.63-3.45-.09-5.33-1.83-2-2.11-3.95-.93-6.47,1.21-2.61.77-3.77-1.58-5.23-.2-.13-.4-.26-.61-.37-1.91-1-2.44-2.74-2.18-4.95.4-3.37-.05-4.37-3-4.83-2.52-.39-3.55-1.9-3.86-4.44-.03-.25-.08-.5-.13-.75-.51-2.49-1.89-2.82-3.71-2.52-2.92.48-3.44.29-4.91-2.52-1.68-3.19-2.27-3.42-5.31-2-.17.08-.34.15-.51.24-1.47.84-2.72.61-4.02-.62-3.25-3.06-3.36-3.01-6.64.09-1.46,1.38-2.29,1.36-4.05.48-3.41-1.68-4.05-1.41-5.59,1.68-.25.49-.55.95-.82,1.42-.52.88-1.31,1.35-2.18,1.42-.94.07-1.91.18-2.87-.17-1.18-.42-2.08.12-2.57,1.38-.22.56-.41,1.17-.45,1.77-.23,2.94-1.81,4.22-4.28,4.69-3.24.63-3.02,2.13-2.72,4.84.29,2.53.09,3.36-1.76,4.61q-3.61,2.44-1.95,6.89c.6,1.6.47,3.09-.65,4.39-.38.44-.78.88-1.11,1.37-1.3,1.88-1.27,2.82.11,4.6.36.46.71.94,1.1,1.38,1.1,1.23,1.02,2.65.55,4.13-.11.34-.28.65-.41.97-1.14,2.8-.85,3.89,1.47,5.49.59.4,1.2.77,1.75,1.23.79.66,1.23,1.61,1.01,2.68-.14.72-.13,1.41-.18,2.12ZM52.5,118.26c.7,1.18,1.56,1.69,2.26,2.38,2.86,2.84,6.01,5.21,9.36,7.24,4.85,2.93,9.99,5.09,15.37,6.4,2.03.49,4.07,1.24,6.26.29,6.55-2.84,12.6-6.6,17.96-11.71,6.94-6.62,12.21-14.57,15.73-23.97,2.23-5.95,3.52-12.14,4.19-18.55.48-4.57.36-9.09-.13-13.59-.36-3.32-.88-6.64-1.81-9.87-.85-2.94-1.58-5.91-2.84-8.67-.24-.52-.1-1.46-.94-1.6-.47,1.33.15,2.55.15,3.8,0,5.15-.35,10.26-1.12,15.34-.64,4.22-1.76,8.31-3.06,12.31-1.41,4.33-3.23,8.48-5.39,12.44-2.29,4.19-4.86,8.14-7.87,11.71-2.44,2.88-4.96,5.67-7.77,8.14-2.57,2.26-5.28,4.29-8.21,5.87-4.4,2.38-9.07,3.77-13.96,4.39-4.36.56-8.63.16-12.88-.83-1.7-.39-3.36-.95-5.3-1.51ZM60.28,137.82c-.04-.33-.03-.45-.07-.52-.12-.22-.33-.3-.53-.43-8.44-5.04-15.48-11.89-21.25-20.41-5.64-8.33-9.53-17.58-11.72-27.72-.77-3.59-1.53-7.22-1.68-10.89-.18-4.4-.09-8.81.77-13.2,1.35-6.92,3.95-13.13,7.68-18.79,1.48-2.25,3.19-4.29,5.3-6.51-2.9.66-5.12,1.95-7.34,3.17-7.34,4.04-13.55,9.71-18.75,16.72-.93,1.26-2.06,2.43-2.43,4.19-.72,3.48-.89,7.04-.97,10.57-.06,2.5.25,5.05.46,7.58.34,4.12,1.15,8.11,2.26,12.01,1.29,4.55,3.08,8.87,5.25,13.01,2.5,4.77,5.56,9.04,8.95,13.04.74.87,1.65,1.55,2.41,2.36,3.4,3.65,7.3,6.49,11.43,8.94,4.15,2.46,8.52,4.35,13.11,5.5,2.31.58,4.62,1.23,7.11,1.38Z"/>
      <path class="cls-1" d="M178.53,120.54c.37-2.01,1.17-3.85,1.79-5.75,1.37-4.19,2.87-8.33,4.31-12.49.65-1.89,1.31-3.77,1.91-5.69.22-.71.64-.77,1.16-.77,1.24,0,2.49.07,3.73-.02.92-.07,1.2.41,1.5,1.29,2.59,7.65,5.24,15.27,7.88,22.9.05.14.13.26.37.76,1.16-8.5,2.28-16.68,3.41-24.92.58,0,1.08,0,1.58,0,3.58,0,3.61-.01,4.68,3.87,1.12,4.06,2.53,8.01,3.41,12.16.04.18.19.33.34.58,1.34-5.28,2.97-10.39,4.51-15.53.24-.79.49-1.1,1.19-1.09,1.38.02,2.75,0,4.17,0,1.15,8.32,2.29,16.56,3.45,24.97-1.35,0-2.67,0-3.99,0-.78,0-.84-.81-.87-1.29-.11-1.76-.43-3.49-.56-5.23-.27-3.65-.77-7.27-1.17-10.9-.78.2-.48.95-.63,1.42-1.55,5.05-3.09,10.11-4.54,15.2-.27.94-.76.89-1.34.84-.71-.05-1.62.42-1.96-.77-1.51-5.33-2.98-10.67-4.53-15.98-.16-.54.03-1.13-.51-1.89-.68,6.32-1.33,12.39-1.99,18.59-3.3,0-6.55-.02-9.81.02-.57,0-.67-.44-.85-.81-.14-.3-.17-.67-.23-1.02-.53-2.99-2.15-3.97-4.8-3.47-1.34.25-2.75.06-4.13.04-.63-.01-.96.18-1.14.96-.31,1.4-.81,2.75-1.27,4.25h-5.01c.02-.08.01-.16-.03-.23ZM192.53,111.18c-.87-3.41-2.14-6.45-3.12-9.76-.93,3.22-1.85,6.44-2.81,9.76h5.93Z"/>
      <path class="cls-1" d="M182.58,87.33h-4.57c-.66-5.89-1.32-11.77-1.98-17.65-.1,0-.21,0-.31.01-1.77,5.95-3.54,11.89-5.31,17.81q-2.68.14-3.48-2.61c-1.31-4.53-2.61-9.07-3.95-13.58-.24-.79-.13-1.69-.72-2.55-.68,6.25-1.35,12.36-2.02,18.57h-4.55c.85-8.47,2.27-16.78,3.31-25.26h5.28c1.56,5.46,3.14,11,4.73,16.54.63-2.26,1.42-4.42,2.08-6.64.89-3.02,1.88-6.01,2.71-9.05.21-.78.51-.96,1.13-.95,1.15.02,2.3.03,3.45,0,.7-.02.92.3,1.01,1.08.44,3.87,1.01,7.72,1.6,11.57.58,3.76.97,7.55,1.39,11.34.05.44.45.8.21,1.37Z"/>
      <path class="cls-1" d="M345.22,120.73h-4.3c-.71-.95-.05-1.96.06-2.88.46-3.76,1.1-7.5,1.62-11.25.41-3.02.74-6.05,1.1-9.07.12-1.02.32-1.84,1.55-1.72,1.23.12,2.48.03,3.84.03,1.55,5.56,3.45,11.02,4.84,16.88,1.31-5.86,3.31-11.25,4.8-16.84h5.13c1.14,8.2,2.29,16.46,3.46,24.92-1.31,0-2.71,0-4.11,0-.41,0-.68-.21-.73-.73-.25-2.9-.49-5.81-.8-8.71-.29-2.75-.65-5.48-.99-8.24-.77.12-.41.98-.56,1.46-1.5,4.95-2.92,9.94-4.38,14.9-.24.8-.52,1.56-1.57,1.41-.92-.13-1.76.17-2.16-1.35-1.46-5.54-3.09-11.02-4.88-16.55-.63,5.86-1.27,11.71-1.92,17.75Z"/>
      <path class="cls-1" d="M226.51,62.04h4.66v25.34c-1.52,0-3.06.05-4.6-.02-.86-.04-1.05-1.08-1.47-1.67-2.96-4.22-5.82-8.54-8.77-12.78-.71-1.02-1.21-2.17-2.03-3.6v17.98h-4.47v-25.32c1.44,0,2.9-.11,4.34.03,1.3.12,1.69,1.6,2.35,2.55,2.79,3.99,5.44,8.1,8.2,12.11.66.96.91,2.16,1.77,3.27v-17.9Z"/>
      <path class="cls-1" d="M316.06,61.67c6.28-.73,12.72,5.75,12.22,13.73-.44,7.04-5.53,12.84-12.29,12.77-6.46-.07-12.08-6.19-12.04-13.48.04-7.18,5.19-13.45,12.12-13.02ZM309.18,74.91c-.47,4.52,3.35,8.44,6.74,8.38,3.91-.07,7.44-3.43,7.32-8.32-.14-5.38-2.79-8.43-7-8.62-4.24-.2-7.49,4.18-7.06,8.57Z"/>
      <path class="cls-1" d="M451.82,121.47c-6.56.08-12.28-6.25-11.69-14.04.53-6.97,4.97-12.46,12.6-12.08,6.65.33,11.42,5.54,11.35,13.29-.08,7.84-5.93,13.02-12.26,12.83ZM451.98,116.54c4.46.17,7.12-3.37,7.12-8.15,0-4.8-2.61-7.81-6.23-8.22-5.29-.6-7.78,4.38-7.79,8.23,0,4.07,2.96,8.63,6.9,8.14Z"/>
      <path class="cls-1" d="M281.83,108.51c.68,6.85-5.77,13.07-11.67,13.04-6.44-.03-12.42-5.82-12.1-13.73.27-6.74,4.88-12.49,11.87-12.53,6.7-.04,12.47,5.84,11.91,13.22ZM276.86,108.43c.43-4.56-2.77-8.6-7.49-8.33-3.47.2-6.39,4.67-6.34,8.12.08,4.91,2.91,8.31,7.07,8.32,4.17,0,6.76-3.1,6.76-8.1Z"/>
      <path class="cls-1" d="M194.37,53.35v-25.06c.47-.42,1.04-.2,1.57-.2,3.46-.01,6.95-.23,10.36.62,4.66,1.17,7.38,5.09,7.82,10.16.29,3.4-.02,6.78-1.9,9.71-1.85,2.88-4.43,4.49-7.52,4.71-3.38.24-6.79.06-10.33.06ZM199.54,48.74c1.24,0,2.49.08,3.72-.03,2.32-.22,4.37-1.1,5.26-3.77.91-2.73.85-5.54.05-8.29-.28-.95-.81-1.81-1.61-2.39-2.34-1.71-4.95-1.55-7.64-1.56v16c0,.08,0,.15.01.23.07-.06.14-.12.21-.19Z"/>
      <path class="cls-1" d="M162.59,42.89v10.4h-4.82v-25.25c2.79.16,5.6-.25,8.41.24.8.14,1.6.12,2.4.37,2.09.66,3.48,2.01,4.05,4.39.99,4.13-.85,7.8-4.67,9.04,2.02,3.72,4.01,7.4,6.13,11.3-1.85,0-3.52.02-5.19,0-.7-.01-.93-.63-1.23-1.24-1.54-3.1-3.11-6.17-4.67-9.26-.1-.27.03-.7-.48-.75.03.27.05.51.08.75ZM162.62,38.83c1.82,0,3.76.46,4.97-1.37.75-1.13.76-2.83-.17-3.93-1.31-1.57-3.12-1.13-4.81-1.1v6.4Z"/>
      <path class="cls-1" d="M185.44,62.06h4.93c0,2.63,0,5.18,0,7.74,0,2.87.16,5.76,0,8.62-.11,2,1.81,4.54,3.5,4.79,2.7.41,4.94-.49,5.72-3.18.39-1.32.62-2.61.62-3.98,0-4.62,0-9.23,0-13.96h4.75c.26.21.13.6.13.94,0,4.93.09,9.86-.02,14.79-.08,3.56-.8,6.97-3.86,8.91-2.43,1.54-5.14,1.33-7.83,1.23-2.45-.09-4.43-1.03-6.09-3.07-1.08-1.33-1.76-2.91-1.79-4.57-.13-6.05-.05-12.1-.05-18.26Z"/>
      <path class="cls-1" d="M230.9,95.81c3.41.19,6.79-.38,10.12.67,2.42.76,3.98,2.77,4.07,5.54.07,2.45-.84,4.46-3.41,5.29-.07.02-.11.14-.23.29.72.79,1.75.96,2.58,1.51,1.23.81,2.09,3.91,1.78,5.24-1.04,4.43-2.99,6.2-7.22,6.38-2.25.1-4.5.05-6.75.07-.27,0-.55,0-.94,0v-24.99ZM235.75,110.16v6.3c3.74.29,5.05-.56,5.25-2.88.24-2.78-1.47-3.88-5.25-3.42ZM235.71,105.71c1.68.08,3.41.37,4.46-1.24.57-.88.58-2.39-.05-3.34-1.14-1.7-2.87-.65-4.41-.96v5.54Z"/>
      <path class="cls-1" d="M367.42,120.8c2.89-8.47,5.68-16.67,8.51-24.97,1.61,0,3.27.01,4.92,0,.53,0,.79.23.98.8,2.47,7.26,4.97,14.51,7.46,21.77.25.74.72,1.39.79,2.4-1.68,0-3.31.02-4.94-.01-.41,0-.73-.17-.83-.79-.11-.66-.47-1.27-.69-1.91q-.87-2.52-3.24-2.52c-1.79,0-3.59.06-5.38-.03-.71-.03-.98.36-1.17.94-.31.98-.51,2.01-.76,3.01-.26,1.04-.64,1.39-1.58,1.34-1.31-.08-2.63-.02-4.07-.02ZM376.03,111.21h5.67c-1.02-3.69-1.98-7.16-2.95-10.66-.76.42-.55,1.12-.67,1.6-.75,2.94-1.79,5.8-2.27,8.83-.05.22.02.31.22.24Z"/>
      <path class="cls-1" d="M176.67,28.11h13.26v4.56h-8.32v5.14h8.28c.2,1.6.13,3.06.05,4.66h-8.33v6.22h8.29v4.61h-13.23v-25.2Z"/>
      <path class="cls-1" d="M263.84,68.41c-4.24-3-8.54-3.96-12.42.33-2.49,2.76-2.46,8.27-.46,11.16,3.77,5.42,8.28,3.87,12.82.77v5.62c-4.11,2.17-8.37,2.6-12.67.42-4.56-2.31-7.28-8.4-6.38-14.27.66-4.28,2.67-7.23,5.83-9.21,2.29-1.43,4.83-2.13,7.61-1.63,1.51.27,2.98.6,4.47.96,1.44.35,1.78,1.29,1.47,2.58-.26,1.06-.17,2.11-.28,3.28Z"/>
      <path class="cls-1" d="M313.32,102.43c-2.64-2.33-5.44-3.4-8.58-2.5-1.53.44-2.97,1.24-3.97,2.73-2.2,3.26-2.05,8.95.4,11.85,1.63,1.93,3.73,2.51,6.08,2.36,2.28-.14,4.06-1.48,6.08-2.97,0,1.87-.02,3.49.01,5.1.01.58-.38.66-.66.83-1.13.71-2.34,1.42-3.61,1.52-3.85.31-7.58.23-10.79-2.96-3.95-3.93-4.84-8.81-3.56-14.08,1.15-4.74,4.23-7.96,9.23-8.78,2.97-.49,5.76-.13,8.55.94.66.25.85.58.84,1.3-.04,1.44-.01,2.88-.01,4.65Z"/>
      <path class="cls-1" d="M176.87,102.6c-2.31-2.29-4.77-3.32-7.48-2.94-1.91.27-3.73,1.08-5.02,2.92-2.3,3.28-2.14,9.1.47,12.06,2.23,2.54,6.64,3.73,11.93-.66.21,1.89.29,3.7-.25,5.4-.29.91-1.38,1.19-2.15,1.41-3.59,1.04-7.17,1.23-10.58-.87-3.9-2.41-5.8-6.1-6-11.07-.15-3.74.81-7,3.06-9.66,3.12-3.69,7.19-4.32,11.48-3.78,1.29.16,2.57.53,3.78,1.1.54.26.83.6.79,1.35-.07,1.46-.02,2.92-.02,4.73Z"/>
      <path class="cls-1" d="M436.78,114.22c0,1.72-.03,3.16.01,4.59.02.7-.29.95-.8,1.21-6.02,3.13-13.9,1.78-17.09-5.89-2.95-7.1-.11-17.07,8.5-18.59,2.87-.51,5.56-.01,8.28.74.91.25,1.65.73,1.4,2.1-.21,1.2.29,2.53-.51,3.74-2.1-1.76-4.44-2.72-7.02-2.47-1.5.15-2.91.8-4.17,1.94-2.92,2.65-3.14,8.67-1.54,11.32,3.63,5.99,8.16,4.48,12.94,1.32Z"/>
      <path class="cls-1" d="M282.88,77.69v9.66h-4.82v-25.38c2.14.17,4.29-.19,6.48.24,1.27.25,2.59.19,3.83.7,2.21.89,3.3,2.7,3.71,5.24.22,1.38.12,2.67-.15,3.99-.78,3.82-3.79,5.45-6.56,5.55-.77.03-1.54,0-2.48,0ZM282.98,73.32c1.61.18,3.15.28,3.82-1.6.52-1.47.67-3.14-.21-4.48-.91-1.39-2.32-.97-3.62-.83v6.92Z"/>
      <path class="cls-1" d="M330.39,84.02c1.14-.83,1.72-2.28,2.84-3.38.89,1.64,2.04,2.77,3.68,3.17,1.55.38,3.68-1.04,4.07-2.74.25-1.08-.1-1.84-.86-2.52-1.73-1.54-3.93-2.17-5.68-3.66-1.55-1.31-3.02-2.58-3.49-4.95-.6-3.02.53-5.17,2.5-6.8,3.14-2.6,9.31-2.43,11.67,1.67-.85,1.01-1.67,2.07-2.86,2.69-1.36-1.52-2.91-2.3-4.86-1.54-.88.34-1.51.93-1.69,1.96-.21,1.17.23,2.13,1.07,2.78,1.1.85,2.32,1.47,3.54,2.09,2.45,1.24,4.77,2.66,5.4,6.04.8,4.25-1.51,8.06-5.15,8.99-2.39.62-4.82.59-7.12-.6-1.29-.67-2.33-1.64-3.05-3.21Z"/>
      <path class="cls-1" d="M390.49,100.52v-4.58h15.6v4.52h-5.36v20.28h-4.78v-20.22h-5.46Z"/>
      <path class="cls-1" d="M280.59,34.46c-2.21-3.31-4.97-4.61-8.67-4.65-4.85-.05-8.76,5.87-8.69,10.79.07,4.88,2.61,9.76,6.77,10.89,2.73.74,5.41.63,7.9-1.27,2.29-1.74,3.22-4.14,3.41-7.24h-7.58c-.31-.72-.19-1.32-.12-2.13h10c.41,6.66-2.95,12.02-8.52,13.11-3.88.76-7.38.05-10.41-2.84-1.98-1.89-3.02-4.41-3.55-7.2-.44-2.34-.24-4.65.23-7,.89-4.44,4.95-8.94,9.12-9.23,3.37-.23,6.54-.01,9.38,2.24.44.35.87.76,1.23,1.21,1.4,1.74,1.35,2.03-.51,3.31Z"/>
      <path class="cls-1" d="M367.44,53.67c-1.75-2.24-3.52-4.46-5.25-6.72-1.75-2.3-3.46-4.64-5.19-6.97-1.44-1.94-2.87-3.89-4.32-5.82-.14-.18-.35-.3-.68-.56v19.6c-.74.25-1.36.15-2.03.1v-26.23c5.31,7,10.45,13.76,15.85,20.87v-19.64c.79-.34,1.38-.21,2.12-.17v25.5c-.17.01-.33.03-.5.04Z"/>
      <path class="cls-1" d="M303.73,53.32v-25.84c.1.01.18-.02.26-.08,2.91,3.8,5.82,7.6,8.72,11.41,2.16,2.84,4.29,5.69,6.44,8.53.07.09.23.09.5.19v-19.25c.73-.34,1.35-.18,2.04-.14v25.69c-.09.06-.17.13-.26.19-5.14-6.79-10.29-13.57-15.58-20.56v19.59c-.72.49-1.33.21-1.9.32-.07-.05-.14-.06-.22-.04Z"/>
      <path class="cls-1" d="M322.4,116.23h7.55v4.51h-12.27v-24.82h4.72v20.31Z"/>
      <path class="cls-1" d="M400.71,53.34v-25.26c2.22.15,4.39-.31,6.56.26,1.05.28,2.15.11,3.24.26,4.48.62,6.79,5.08,7.49,8.99.49,2.74.21,5.42-.45,8.07-1.13,4.54-3.95,7.09-8.01,7.61-2.89.36-5.85.07-8.84.07ZM402.87,51.27c2.39.16,4.75.22,7.05-.15,1.66-.26,3.15-1.23,4.15-2.89,2.23-3.7,2.07-7.73,1.31-11.83-.5-2.72-1.94-4.78-4.3-5.64-2.67-.98-5.48-.45-8.21-.53v21.04Z"/>
      <path class="cls-1" d="M422.6,62.01h1.99v25.48c-.1.09-.2.18-.3.27-5.12-6.75-10.23-13.5-15.62-20.62v2.85c0,5.19,0,10.37,0,15.56q0,2.05-1.93,1.97v-26.45c5.35,7.05,10.51,13.84,15.87,20.88v-19.95Z"/>
      <path class="cls-1" d="M376.34,75.52v11.96h-2.05v-25.52c2.53.13,5.01-.23,7.48.58,2.07.68,3.43,1.97,3.78,4.37.51,3.45.1,7.55-4.54,8.33-.25.04-.49.25-.86.44,2.61,3.87,5.22,7.72,7.86,11.63-2.35.56-2.54.42-4.51-2.71-1.81-2.86-3.64-5.69-5.48-8.52-.38-.59-.81-1.14-1.68-.57ZM376.41,73.38c1.17,0,2.28.14,3.35-.03,1.7-.27,3.31-.86,3.62-3.15.34-2.48-.11-5.08-2.07-5.65-1.57-.45-3.21-.58-4.9-.33v9.16Z"/>
      <path class="cls-1" d="M247.81,41.78v11.47h-2.11v-25.12c3.02-.11,6.09-.37,8.97,1.16,1.93,1.03,2.37,3.13,2.53,5.16.2,2.6-.93,5.78-3.78,6.71-.6.2-1.18.03-2.02.27,2.62,3.93,5.19,7.77,7.76,11.61-1.67.68-2.32.44-3.26-1.02-2.04-3.17-4.11-6.33-6.2-9.46-.4-.6-.9-1.21-1.9-.78ZM247.88,39.44c2.33-.05,4.88.78,6.4-1.84.95-1.64.98-3.88,0-5.48-1.52-2.47-4.06-1.83-6.39-1.88v9.2Z"/>
      <path class="cls-1" d="M295.46,62.03h4.75v25.29h-4.75v-25.29Z"/>
      <path class="cls-1" d="M236.07,62.04h4.77v25.29h-4.77v-25.29Z"/>
      <path class="cls-1" d="M268.35,62.03h4.69v25.27h-4.69v-25.27Z"/>
      <path class="cls-1" d="M409.28,95.89h4.71v24.82h-4.71v-24.82Z"/>
      <path class="cls-1" d="M243.46,53.31c-2.38.07-2.41.09-3.27-2.3-.61-1.69-1.19-3.4-1.67-5.15-.2-.74-.49-.99-1.13-.99-2.48.02-4.97.06-7.45-.02-.95-.03-1.16.67-1.4,1.35-.73,2.05-1.4,4.13-2.12,6.19-.52,1.5-.97,1.65-2.56.88,3.29-8.67,6.58-17.35,10-26.37,3.27,9,6.41,17.66,9.59,26.41ZM230.21,42.78h7.35c-1.25-3.59-2.45-7.03-3.64-10.47l-.32.04c-1.15,3.28-2.3,6.55-3.45,9.83-.17.23-.48.48.07.6Z"/>
      <path class="cls-1" d="M447.64,72.12h8.9c.22.73.13,1.38.07,2.16h-8.98v10.83h8.87c.28.78.16,1.44.12,2.2h-11.16v-25.21h11.11c.2.6.09,1.25.05,2.05h-8.98v7.97Z"/>
      <path class="cls-1" d="M392.88,64.17v7.89h8.94c.27.77.15,1.42.12,2.19h-9.02v10.85h9v2.23h-11.2v-25.28h11.17c.14.7.12,1.34,0,2.12h-9.02Z"/>
      <path class="cls-1" d="M467.25,87.45c-.34-1.2.48-2.13.83-3.03,2.81-7.29,5.58-14.61,8.26-21.96.11-.29.13-.84.68-.79.46.04.46.49.56.76,2.9,7.91,5.77,15.83,8.66,23.74.16.43.35.82.19,1.29-2.56.18-1.85.48-2.72-1.93-.79-2.19-1.57-4.39-2.41-6.73-2.76,0-5.6.02-8.44-.01-.69,0-.82.55-.99,1.04-.71,2.01-1.37,4.03-2.07,6.05-.62,1.81-.63,1.81-2.56,1.59ZM480.75,76.74c-1.32-3.62-2.57-7.06-3.91-10.74-1.35,3.75-2.78,7.09-3.69,10.74h7.6Z"/>
      <path class="cls-1" d="M389.64,53.31h-2.46c-.81-2.48-1.62-4.94-2.41-7.41-.23-.7-.57-1.06-1.31-1.04-2.44.05-4.88.03-7.31.01-.67,0-1.04.2-1.28,1.01-.57,1.88-1.4,3.67-1.95,5.56-.48,1.62-1.25,2.36-2.87,1.79,3.24-8.56,6.5-17.15,9.76-25.74.12-.06.25-.11.37-.17,3.13,8.61,6.27,17.22,9.47,26ZM383.72,42.78c-1.26-3.6-2.46-7.04-3.79-10.84-1.36,3.78-2.6,7.25-3.89,10.84h7.68Z"/>
      <path class="cls-1" d="M249.54,95.9h4.65v24.79h-4.65v-24.79Z"/>
      <path class="cls-1" d="M333.04,95.89h4.62v24.82h-4.62v-24.82Z"/>
      <path class="cls-1" d="M287.78,28.1h11.01c.32.64.1,1.3.16,2.1h-9.01v7.92h8.79c.4.76.12,1.44.28,2.21h-9.07v10.81h8.84c.3.76.15,1.41.15,2.16h-11.14v-25.19Z"/>
      <path class="cls-1" d="M433.7,38.17v2.21h-9v10.81h8.94c.15.78.14,1.42.02,2.14h-11.1v-25.14h11.11v2.07h-8.97v7.92h8.99Z"/>
      <path class="cls-1" d="M358.72,87.41v-25.32h11.16v2.07h-9.01v7.89h8.36c.28.76.12,1.41.14,2.23h-8.59c0,3.91,0,7.65,0,11.39,0,2.04-.04,2.07-2.06,1.74Z"/>
      <path class="cls-1" d="M427.71,64.21v-2.15h14.53v2.1h-5.81c-.39.64-.23,1.22-.23,1.76-.01,6.52,0,13.04,0,19.56q0,2.14-2.13,2.05v-23.32h-6.34Z"/>
      <path class="cls-1" d="M331.07,53.32v-23.05h-6.32c-.16-.79-.15-1.43-.03-2.13h14.5v2.13h-5.98v23.09h-1.95c-.07-.05-.14-.06-.22-.04Z"/>
      <path class="cls-1" d="M491.21,85.16h7.4c.28.74.2,1.39.09,2.15h-9.79v-25.28h2.05v23c-.03.16-.1.34.09.43.01,0,.1-.19.16-.29Z"/>
      <path class="cls-1" d="M342.52,53.58v-25.4c.68-.18,1.3-.15,1.99-.03v25.42h-1.99Z"/>
      <path class="cls-1" d="M376.35,94.65c.53-1.51,1-2.87,1.49-4.25h3.17c-.4,1.25-.78,2.4-1.14,3.57-.16.51-.43.71-.91.69-.82-.03-1.65,0-2.6,0Z"/>
      <path class="cls-1" d="M162.59,42.89c-.02-.24-.05-.48-.08-.75.5.05.38.48.48.75-.13,0-.27,0-.4,0Z"/>
      <path class="cls-1" d="M491.21,85.16c-.05.1-.14.3-.16.29-.19-.09-.12-.27-.09-.43.08.05.16.09.25.14Z"/>
      <path class="cls-1" d="M367.44,53.67c.17-.01.33-.03.5-.04-.03.12-.06.24-.09.36-.14-.11-.27-.21-.41-.32Z"/>
      <path class="cls-1" d="M331.07,53.32c.08-.02.15,0,.22.04-.07.06-.14.12-.21.19,0-.08,0-.15-.01-.23Z"/>
      <path class="cls-1" d="M303.73,53.32c.08-.02.15,0,.22.04-.07.06-.14.12-.21.19,0-.08,0-.15-.01-.23Z"/>
      <path class="cls-1" d="M303.99,27.4c-.08.06-.16.09-.26.08,0-.08,0-.16.02-.23.08.05.16.1.25.16Z"/>
      <path class="cls-1" d="M178.53,120.54c.04.07.05.15.03.23-.07,0-.14,0-.2-.01.06-.07.12-.14.18-.21Z"/>
      <path class="cls-3" d="M37.7,94.58c.04-.71.03-1.4.17-2.12.22-1.07-.22-2.02-1.01-2.68-.55-.46-1.16-.82-1.75-1.23-2.32-1.6-2.61-2.68-1.47-5.49.13-.33.3-.64.41-.97.47-1.48.55-2.9-.55-4.13-.39-.43-.74-.91-1.1-1.38-1.39-1.78-1.42-2.72-.11-4.6.34-.49.73-.92,1.11-1.37,1.12-1.3,1.25-2.79.65-4.39q-1.65-4.45,1.95-6.89c1.86-1.25,2.05-2.08,1.76-4.61-.31-2.7-.52-4.21,2.72-4.84,2.46-.48,4.04-1.75,4.28-4.69.05-.6.23-1.21.45-1.77.49-1.26,1.39-1.8,2.57-1.38.96.34,1.92.24,2.87.17.87-.06,1.67-.54,2.18-1.42.28-.47.58-.93.82-1.42,1.54-3.09,2.19-3.36,5.59-1.68,1.77.87,2.59.9,4.05-.48,3.28-3.1,3.39-3.16,6.64-.09,1.3,1.22,2.55,1.46,4.02.62.16-.09.34-.16.51-.24,3.04-1.42,3.64-1.2,5.31,2,1.47,2.8,1.99,3,4.91,2.52,1.82-.3,3.2.03,3.71,2.52.05.25.1.5.13.75.31,2.54,1.33,4.05,3.86,4.44,2.95.45,3.41,1.46,3,4.83-.26,2.21.27,3.94,2.18,4.95.21.11.41.24.61.37,2.35,1.46,2.8,2.62,1.58,5.23-1.17,2.52-.9,4.47.93,6.47,1.72,1.88,1.63,3.49.09,5.33-.98,1.17-2.21,2.34-1.78,4.25.2.88.57,1.72.88,2.57.88,2.41.67,3.2-1.28,4.59-.54.39-1.11.73-1.64,1.14-1.37,1.03-1.85,2.44-1.48,4.26.65,3.25.02,4.45-2.94,5.05-2.3.46-3.5,1.72-3.88,4.36-.5,3.4-1.86,4.24-4.9,3.42-1.43-.39-2.54.05-3.36,1.39-.52.85-.95,1.76-1.48,2.6-.83,1.33-2.01,1.83-3.22,1.02-2.75-1.84-5.02-1.52-7.18,1.19-1.01,1.26-2.55,1.32-3.58.05-2.26-2.8-4.59-2.96-7.45-1.22-1.54.94-2.28.46-3.3-1.27-.4-.68-.79-1.37-1.19-2.06-.95-1.65-2.01-2.12-3.71-1.68-2.76.71-3.97.01-4.44-3.05-.44-2.86-1.85-4.24-4.29-4.79-2.57-.58-2.92-1.19-2.87-4.09Z"/>
      <path class="cls-1" d="M20.07,37.71c-.09.05-.17.09-.26.14-.07-.17.03-.22.15-.25.03.04.07.07.11.11Z"/>
      <path class="cls-1" d="M199.32,48.7c.08-.02.15,0,.22.04-.07.06-.14.12-.21.19,0-.08,0-.15-.01-.23Z"/>
      <path class="cls-1" d="M375.81,110.98c.07.08.15.16.22.24-.2.07-.27-.01-.22-.24Z"/>
      <path class="cls-1" d="M230.14,42.18c.02.2.05.4.07.6-.55-.12-.24-.37-.07-.6Z"/>
    </g>
  </g>
</svg>